<?xml version="1.0" encoding="UTF-8"?>
<svg id="Layer_1" data-name="Layer 1" xmlns="http://www.w3.org/2000/svg" viewBox="0 0 232.77 156.63">
  <defs>
    <style>
      .cls-1 {
        fill: #00a86b;
      }

      .cls-2, .cls-3, .cls-4 {
        fill: #e4f4f8;
      }

      .cls-3 {
        font-family: Lato-Regular, Lato;
        font-size: 30.63px;
      }

      .cls-5 {
        letter-spacing: 0em;
      }

      .cls-6 {
        letter-spacing: -.02em;
      }

      .cls-7 {
        letter-spacing: -.02em;
      }

      .cls-8 {
        letter-spacing: -.03em;
      }

      .cls-9 {
        letter-spacing: 0em;
      }

      .cls-10 {
        letter-spacing: 0em;
      }

      .cls-4 {
        font-family: Quicksand-Bold, Quicksand;
        font-size: 55.02px;
        font-weight: 700;
      }

      .cls-11 {
        letter-spacing: 0em;
      }
    </style>
  </defs>
  <g>
    <path class="cls-2" d="M135.79,47.7c-5.51,5.91-14.77,6.23-20.68.71l-1.44-1.34-1.11,1.19c-5.51,5.91-14.77,6.23-20.68.71-5.91-5.51-6.23-14.77-.71-20.68l1.11-1.19-1.36-1.27c-5.91-5.51-6.23-14.77-.71-20.68,5.51-5.91,14.77-6.23,20.68-.71l1.5,1.4,1.11-1.19c5.51-5.91,14.77-6.23,20.68-.71,5.91,5.51,6.23,14.77.71,20.68l-1.11,1.19,1.3,1.21c5.91,5.51,6.23,14.77.71,20.68Z"/>
    <path class="cls-1" d="M122.17,17.28c-8.42,6.56-9.92,6.56-18.34,0,6.56,8.42,6.56,9.92,0,18.34,8.42-6.56,9.92-6.56,18.34,0-6.56-8.42-6.56-9.92,0-18.34Z"/>
  </g>
  <text class="cls-4" transform="translate(0 109.87)"><tspan x="0" y="0">four </tspan><tspan class="cls-9" x="128.3" y="0">l</tspan><tspan class="cls-11" x="142.6" y="0">e</tspan><tspan x="174.73" y="0">af</tspan></text>
  <text class="cls-3" transform="translate(29.44 148.41)"><tspan x="0" y="0">c</tspan><tspan class="cls-10" x="14.62" y="0">a</tspan><tspan class="cls-7" x="29.61" y="0">f</tspan><tspan class="cls-5" x="39.84" y="0">e &amp; ba</tspan><tspan class="cls-8" x="125.87" y="0">k</tspan><tspan class="cls-5" x="140.55" y="0">er</tspan><tspan class="cls-6" x="167.87" y="0">y</tspan></text>
</svg>