<svg xmlns="http://www.w3.org/2000/svg" viewBox="0 0 64 64" fill="none">
  <!-- Top leaf -->
  <path d="M32 32 C32 32 20 28 20 18 C20 11 26 6 32 10 C38 6 44 11 44 18 C44 28 32 32 32 32Z" fill="#2D8B5F"/>
  <!-- Right leaf -->
  <path d="M32 32 C32 32 36 20 46 20 C53 20 58 26 54 32 C58 38 53 44 46 44 C36 44 32 32 32 32Z" fill="#2D8B5F"/>
  <!-- Bottom leaf -->
  <path d="M32 32 C32 32 44 36 44 46 C44 53 38 58 32 54 C26 58 20 53 20 46 C20 36 32 32 32 32Z" fill="#2D8B5F"/>
  <!-- Left leaf -->
  <path d="M32 32 C32 32 28 44 18 44 C11 44 6 38 10 32 C6 26 11 20 18 20 C28 20 32 32 32 32Z" fill="#2D8B5F"/>
  <!-- Stem -->
  <path d="M32 54 C32 54 30 60 28 62" stroke="#2D8B5F" stroke-width="2.5" stroke-linecap="round"/>
  <!-- Center highlight -->
  <circle cx="32" cy="32" r="4" fill="#52A076"/>
</svg>
